<?xml version="1.0" encoding="utf-8"?>
<!DOCTYPE svg PUBLIC "-//W3C//DTD SVG 1.1 Tiny//EN" "http://www.w3.org/Graphics/SVG/1.1/DTD/svg11-tiny.dtd">
<svg version="1.1" baseProfile="tiny" xmlns="http://www.w3.org/2000/svg" xmlns:xlink="http://www.w3.org/1999/xlink" x="0px"
 y="0px" width="1393px" height="1430px" viewBox="0 0 1393 1430" xml:space="preserve">
<g id="Layer_1">
<path fill="#444" d="M257,1135l-64,150h-26l-38-87l-39,87H63L0,1135h46l30,82
l35-82h32l34,82l32-82H257L257,1134z"/>
<path fill="#444" d="M322,1284h-45v-149h45V1284z"/>
<path fill="#444" d="M515,1284h-55l-57-69v69h-45v-148h45v66l54-66h49l-55,69
L515,1284z"/>
<path fill="#444" d="M580,1284H535v-148h45V1284L580,1284z"/>
<path fill="#444" d="M789,1284h-45v-86l-40,50h-4l-40-50v86h-43v-148h41l46,56
l46-56h41V1284L789,1284L789,1284z"/>
<path fill="#444" d="M939,1284H827v-148h110v30h-65v27h62v30h-62v32h67V1284
L939,1284z"/>
<path fill="#444" d="M1121,1212c0,15-3,27-8,37c-6,9-12,17-20,22
c-11,8-25,13-45,13h-2h-78V1136h62c9,0,17,0,24,1
c7,1,13,2,18,4c5,2,10,4,13,6c4,2,7,5,10,7
c5,4,3,3,13,15c4,6,7,12,9,20S1121,1204,1121,1212z M1075,1210
c0-12-2-21-7-28c-5-7-10-11-17-14c-6-2-13-3-20-3h-19v88h19
c12,0,22-3,30-8C1071,1239,1075,1228,1075,1210"/>
<path fill="#444" d="M1193,1284h-45v-145h45V1284L1193,1284z"/>
<path fill="#444" d="M1393,1284h-46l-12-30h-64l-12,30h-46l66-148h49L1393,1284z
 M1325,1227l-22-54l-22,54H1325z"/>
<path fill="#666" d="M320,1421h-27v-89h27V1421z"/>
<path fill="#666" d="M439,1421h-24l-46-50v50h-27v-88h24l46,49v-49h27V1421
L439,1421z"/>
<path fill="#666" d="M553,1379c0,9-2,16-5,22c-3,6-7,10-12,13
c-6,5-15,8-27,8h-1h-47v-89h37c6,0,10,0,14,1s8,1,11,2
s6,2,8,4c2,1,4,3,6,4c3,2,6,5,8,9
c2,3,4,7,5,12S553,1373,553,1379z M525,1377c0-7-1-13-4-17
s-6-7-10-8c-4-1-8-2-12-2h-11v53h11c7,0,13-2,18-5
C523,1395,525,1388,525,1377z"/>
<path fill="#666" d="M664,1377c0,8-2,16-6,23c-4,7-10,13-17,17
s-17,6-28,6c-11,0-20-2-28-6s-13-10-17-17c-4-7-6-14-6-22
c0-8,2-15,6-22c4-7,9-13,17-17c8-4,17-6,28-6
c8,0,16,1,22,4c6,2,12,6,16,9s7,9,9,15
C663,1365,664,1371,664,1377z M637,1377c0-3-0-6-1-9
c-1-3-2-5-4-7c-2-2-4-4-7-5c-3-1-6-2-10-2
c-7,0-13,2-17,6c-4,4-6,10-6,16s2,12,6,17s10,6,17,6
c5,0,9-1,13-3c3-2,6-5,8-8C636,1385,637,1381,637,1377z"/>
<path fill="#666" d="M776,1421h-24l-46-50v50h-27v-89h24l46,49v-49h27V1421
L776,1421z"/>
<path fill="#666" d="M865,1421h-67v-89h66v18h-39v16h37v18h-37v19h40V1421
L865,1421z"/>
<path fill="#666" d="M945,1395c0,6-1,10-4,14c-3,4-7,7-12,9
c-5,2-11,3-18,3c-2,0-4-0-7-0c-3-0-6-1-11-2
c-4-1-9-3-14-5v-22c4,3,9,5,13,7s9,3,14,3
c5,0,7-1,9-2s2-3,2-4c0-2-1-4-3-6s-6-3-10-5
c-5-2-9-4-13-7c-4-2-7-5-9-9c-2-4-4-8-4-13
c0-5,1-9,4-13s6-7,11-9c5-2,11-3,18-3c5,0,10,0,14,1
s8,2,10,3c3,1,5,2,6,3v21c-4-3-8-5-12-7
c-4-2-9-3-14-3c-3,0-6,1-7,2c-1,1-2,3-2,5
c0,2,1,3,2,5s4,3,8,5c7,3,12,6,16,9c4,3,7,6,10,9
C944,1385,945,1390,945,1395z"/>
<path fill="#666" d="M990,1421h-27v-88h27V1421z"/>
<path fill="#666" d="M1110,1421h-28l-7-18h-39l-7,18h-27l39-89h30L1110,1421z
 M1069,1388l-13-32l-13,32H1069z"/>
</g>
<g id="Layer_2">
<g id="g3251_1_">
<path id="path7_1_" fill="#900" d="M527,186c0-96,78-174,174-174c96,0,174,78,174,174
c0,96-78,174-174,174C605,360,527,282,527,186L527,187z"/>
<path id="path9_1_" fill="#396" d="M911,291c65,58,106,142,106,236
c0,162-122,296-279,314V464L911,291L911,291z"/>
<path id="path11_1_" fill="#396" d="M385,527c0-94,41-178,105-236l173,173v377
C507,823,385,689,385,527L385,527z"/>
<path id="path13_1_" fill="#069" d="M175,535c0-154,66-291,171-388l96,96
c-78,70-127,172-127,286c0,213,173,386,386,386c213,0,386-173,386-386
c0-114-49-215-127-286l96-96c105,96,171,234,171,388
c0,290-235,526-526,526C411,1060,175,825,175,535L175,535z"/>
</g>
</g>
</svg>

